<mxfile host="65bd71144e">
    <diagram id="VbrREoEy03U7XiisETSt" name="Page-1">
        <mxGraphModel dx="819" dy="450" grid="1" gridSize="10" guides="1" tooltips="1" connect="1" arrows="1" fold="1" page="1" pageScale="1" pageWidth="850" pageHeight="1100" math="0" shadow="0">
            <root>
                <mxCell id="0"/>
                <mxCell id="1" parent="0"/>
                <mxCell id="10" value="" style="rounded=1;whiteSpace=wrap;html=1;fontColor=#e95858;fillColor=none;" vertex="1" parent="1">
                    <mxGeometry x="130" y="140" width="420" height="270" as="geometry"/>
                </mxCell>
                <mxCell id="6" value="s/y/z" style="ellipse;whiteSpace=wrap;html=1;" vertex="1" parent="1">
                    <mxGeometry x="150" y="190" width="60" height="40" as="geometry"/>
                </mxCell>
                <mxCell id="7" value="&lt;b&gt;&lt;font color=&quot;#bc2929&quot;&gt;_get_tdr(self, rise_time, delay)&lt;/font&gt;&lt;/b&gt;&lt;br&gt;&lt;br&gt;1. Calculate fitted S Parameter&lt;br&gt;2. Calculate impulse respones&lt;br&gt;3. Do the convolution to get the time-domain backward waveform&lt;br&gt;4. Determine the TDR profile" style="rounded=0;whiteSpace=wrap;html=1;" vertex="1" parent="1">
                    <mxGeometry x="150" y="250" width="230" height="120" as="geometry"/>
                </mxCell>
                <mxCell id="11" value="&lt;font style=&quot;font-size: 23px;&quot; color=&quot;#ffffff&quot;&gt;NetowrkData&lt;/font&gt;" style="text;html=1;strokeColor=none;fillColor=none;align=left;verticalAlign=middle;whiteSpace=wrap;rounded=0;fontColor=#e95858;" vertex="1" parent="1">
                    <mxGeometry x="140" y="150" width="270" height="30" as="geometry"/>
                </mxCell>
                <mxCell id="12" value="&lt;b&gt;&lt;font color=&quot;#bc2929&quot;&gt;_get_passivity_matrix()&lt;/font&gt;&lt;/b&gt;" style="rounded=0;whiteSpace=wrap;html=1;" vertex="1" parent="1">
                    <mxGeometry x="590" y="160" width="170" height="20" as="geometry"/>
                </mxCell>
                <mxCell id="13" value="&lt;b&gt;&lt;font color=&quot;#bc2929&quot;&gt;_get_causality_matrix()&lt;/font&gt;&lt;/b&gt;" style="rounded=0;whiteSpace=wrap;html=1;" vertex="1" parent="1">
                    <mxGeometry x="590" y="200" width="170" height="20" as="geometry"/>
                </mxCell>
            </root>
        </mxGraphModel>
    </diagram>
</mxfile>